<?xml version="1.0" encoding="UTF-8"?><svg xmlns="http://www.w3.org/2000/svg" viewBox="0 0 300 250"><defs><style>.e{fill:#0398f1;}</style></defs><g id="a"/><g id="b"><g id="c"><path id="d" class="e" d="M294.49,21.18c0,3.96,2.23,7.4,5.51,9.13v7.54c-3.28,1.73-5.51,5.17-5.51,9.13s2.23,7.4,5.51,9.13v7.55c-3.28,1.73-5.51,5.17-5.51,9.13s2.23,7.4,5.51,9.13v7.54c-3.28,1.73-5.51,5.17-5.51,9.13s2.23,7.4,5.51,9.13v7.54c-3.28,1.73-5.51,5.17-5.51,9.13s2.23,7.4,5.51,9.13v7.54c-3.28,1.73-5.51,5.17-5.51,9.13s2.23,7.4,5.51,9.13v7.54c-3.28,1.73-5.51,5.17-5.51,9.13s2.23,7.4,5.51,9.13v7.54c-3.28,1.73-5.51,5.18-5.51,9.14s2.23,7.4,5.51,9.13v7.54c-3.28,1.73-5.51,5.17-5.51,9.13s2.23,7.4,5.51,9.13v7.54c-2.29,1.21-4.07,3.26-4.93,5.73h-6.31c-1.41-4.03-5.24-6.92-9.75-6.92s-8.34,2.89-9.75,6.92h-6.31c-1.4-4.03-5.24-6.92-9.74-6.92s-8.34,2.89-9.75,6.92h-6.31c-1.4-4.03-5.24-6.92-9.74-6.92s-8.34,2.89-9.75,6.92h-6.32c-1.4-4.03-5.23-6.92-9.74-6.92s-8.34,2.89-9.74,6.92h-6.32c-1.4-4.03-5.23-6.92-9.74-6.92s-8.34,2.89-9.74,6.92h-6.32c-1.4-4.03-5.23-6.92-9.74-6.92s-8.34,2.89-9.74,6.92h-6.32c-1.4-4.03-5.23-6.92-9.74-6.92s-8.34,2.89-9.74,6.92h-6.32c-1.4-4.03-5.24-6.92-9.74-6.92s-8.34,2.89-9.74,6.92h-6.32c-1.41-4.03-5.24-6.92-9.75-6.92s-8.34,2.89-9.74,6.92h-6.31c-1.41-4.03-5.24-6.92-9.75-6.92s-8.34,2.89-9.74,6.92h-6.31c-1.41-4.03-5.24-6.92-9.75-6.92s-8.34,2.89-9.75,6.92H4.93c-.86-2.47-2.64-4.52-4.93-5.73v-7.54c3.28-1.73,5.51-5.17,5.51-9.13s-2.23-7.4-5.51-9.13v-7.54c3.28-1.73,5.51-5.17,5.51-9.13s-2.23-7.41-5.51-9.14v-7.54c3.28-1.73,5.51-5.17,5.51-9.13s-2.23-7.4-5.51-9.13v-7.54c3.28-1.73,5.51-5.17,5.51-9.13s-2.23-7.4-5.51-9.13v-7.54c3.28-1.73,5.51-5.17,5.51-9.13s-2.23-7.4-5.51-9.13v-7.54c3.28-1.73,5.51-5.17,5.51-9.13s-2.23-7.4-5.51-9.13v-7.54c3.28-1.73,5.51-5.17,5.51-9.13s-2.23-7.4-5.51-9.13v-7.55c3.28-1.73,5.51-5.17,5.51-9.13s-2.23-7.4-5.51-9.13v-7.54c3.28-1.73,5.51-5.17,5.51-9.13S3.28,13.78,0,12.05V4.51C1.9,3.51,3.45,1.93,4.42,0h7.34c1.7,3.38,5.19,5.7,9.23,5.7S28.52,3.38,30.22,0h7.35c1.69,3.38,5.19,5.7,9.22,5.7s7.53-2.32,9.23-5.7h7.35c1.69,3.38,5.19,5.7,9.22,5.7s7.53-2.32,9.23-5.7h7.36c1.69,3.38,5.18,5.7,9.22,5.7s7.53-2.32,9.22-5.7h7.36c1.69,3.38,5.18,5.7,9.22,5.7s7.53-2.32,9.22-5.7h7.36c1.69,3.38,5.18,5.7,9.22,5.7s7.53-2.32,9.22-5.7h7.36c1.69,3.38,5.18,5.7,9.22,5.7s7.53-2.32,9.22-5.7h7.36c1.69,3.38,5.19,5.7,9.22,5.7s7.53-2.32,9.22-5.7h7.36c1.7,3.38,5.19,5.7,9.23,5.7s7.53-2.32,9.22-5.7h7.35c1.7,3.38,5.19,5.7,9.23,5.7s7.53-2.32,9.22-5.7h7.35c1.7,3.38,5.19,5.7,9.23,5.7s7.53-2.32,9.23-5.7h7.34c.97,1.93,2.52,3.51,4.42,4.51v7.54c-3.28,1.73-5.51,5.17-5.51,9.13Z"/></g></g></svg>