<?xml version="1.0" encoding="UTF-8"?><svg xmlns="http://www.w3.org/2000/svg" viewBox="0 0 122.51 18.2"><defs><style>.f{fill:#fff;}</style></defs><g id="a"/><g id="b"><g id="c"><g><path class="f" d="M47.31,.07l-7.8,11.55c-.81,1.22-2.23,1.96-3.72,1.96-2.43,0-4.43-1.99-4.43-4.4s2-4.43,4.44-4.43c.25-.03,.57-.06,.8-.06,1.68,0,3.4,.7,4.56,1.89l2.33-3.53c-1.81-1.86-4.5-3.05-7.18-3.05-5.02,0-9.61,4.14-9.61,9.15s4.11,9.05,9.12,9.05c2.43,0,4.85-1.03,6.54-2.73h5.37l.03,2.73h4.66V.07h-5.11Zm-2.14,11.42l2.56-3.56,.03,3.56h-2.59Z"/><path class="f" d="M21.06,13.8v-2.54h5V6.84h-5v-2.31h5.51V.07l-10.62,.03V6.33C14.85,2.93,11.68,.42,8.06,.1L0,.07V18.2H8.09c3.59-.32,6.76-2.83,7.86-6.2v6.2h10.62v-4.4h-5.51Zm-10.25-1.89c-.29,1.22-1.46,2.08-2.72,2.11h-2.98V4.3h2.98c1.26,0,2.43,.91,2.72,2.15,.29,.84,.45,1.8,.45,2.7s-.16,1.89-.45,2.76Z"/><path id="d" class="f" d="M61.35,18.2h-4.66V4.3h-3.62V.1l11.91-.03V4.3h-3.62v13.89h0Z"/><path id="e" class="f" d="M80.51,.07h-4.66l-.03,6.77h-5.5l-.03-6.77h-4.66V18.2h4.69v-7.15h5.53v7.15h4.66V.07h0Z"/><path class="f" d="M117.84,.07V8.51L111.44,.07l-4.24,.03-.03,6.61c-1.07-3.85-4.73-6.64-8.81-6.64-5.01,0-9.12,4.07-9.12,9.08,0,1.6,.49,3.24,1.26,4.65h-4.62V.07h-4.74V18.2h10.85v-2.54c1.72,1.57,4.05,2.54,6.37,2.54,4.08,0,7.67-2.73,8.81-6.58l.03,6.58h4.69V9.38l6.37,8.82h4.24V.07h-4.66Zm-19.48,13.7c-2.55,0-4.65-2.05-4.65-4.62s2.1-4.62,4.65-4.62,4.7,2.08,4.7,4.62-2.11,4.62-4.7,4.62Z"/></g></g></g></svg>